<svg width="24" height="24" viewBox="0 0 24 24" fill="none" xmlns="http://www.w3.org/2000/svg">
<g id="arrow-right-circle-line 1">
<g id="Vector">
<path d="M12 10.8V7.2L16.8 12L12 16.8V13.2H7.2V10.8H12ZM12 0C18.624 0 24 5.376 24 12C24 18.624 18.624 24 12 24C5.376 24 0 18.624 0 12C0 5.376 5.376 0 12 0ZM12 21.6C17.304 21.6 21.6 17.304 21.6 12C21.6 6.696 17.304 2.4 12 2.4C6.696 2.4 2.4 6.696 2.4 12C2.4 17.304 6.696 21.6 12 21.6Z" fill="black"/>
<path d="M12 10.8V7.2L16.8 12L12 16.8V13.2H7.2V10.8H12ZM12 0C18.624 0 24 5.376 24 12C24 18.624 18.624 24 12 24C5.376 24 0 18.624 0 12C0 5.376 5.376 0 12 0ZM12 21.6C17.304 21.6 21.6 17.304 21.6 12C21.6 6.696 17.304 2.4 12 2.4C6.696 2.4 2.4 6.696 2.4 12C2.4 17.304 6.696 21.6 12 21.6Z" fill="#002586"/>
</g>
</g>
</svg>
