<svg width="25" height="25" viewBox="0 0 25 25" fill="none" xmlns="http://www.w3.org/2000/svg">
<g id="Group">
<path id="Vector" d="M15.5114 1.09117C15.9964 1.19651 16.3042 1.67509 16.1989 2.1601C16.0935 2.64512 15.615 2.95293 15.1299 2.8476C14.422 2.69387 13.6951 2.6156 12.9575 2.6156C7.33246 2.6156 2.77246 7.1756 2.77246 12.8006C2.77246 18.4257 7.33246 22.9857 12.9575 22.9857C18.5825 22.9857 23.1426 18.4257 23.1426 12.8006C23.1426 12.094 23.0708 11.3974 22.9295 10.7176C22.8286 10.2317 23.1408 9.75594 23.6266 9.655C24.1127 9.55406 24.5885 9.86617 24.6894 10.3521C24.8554 11.1519 24.9399 11.9711 24.9399 12.8006C24.9399 19.4183 19.5752 24.7831 12.9575 24.7831C6.3398 24.7831 0.975098 19.4183 0.975098 12.8006C0.975098 6.18294 6.3398 0.818237 12.9575 0.818237C13.8236 0.818237 14.6783 0.910274 15.5114 1.09117Z" fill="white"/>
<path id="Vector_2" fill-rule="evenodd" clip-rule="evenodd" d="M14.5727 11.1872C14.9237 11.5381 15.4928 11.538 15.8436 11.187L20.1834 6.84594C20.5344 6.49494 20.5342 5.92592 20.1833 5.57501C19.8322 5.22411 19.2631 5.22419 18.9123 5.5752L14.5725 9.91624C14.2217 10.2673 14.2217 10.8363 14.5727 11.1872ZM8.4277 17.3306C8.77863 17.6816 9.34764 17.6816 9.69864 17.3307L11.1971 15.8326C11.548 15.4817 11.5481 14.9127 11.1972 14.5617C10.8462 14.2107 10.2772 14.2106 9.92624 14.5616L8.42783 16.0596C8.07684 16.4106 8.07678 16.9796 8.4277 17.3306Z" fill="white"/>
<path id="Vector_3" fill-rule="evenodd" clip-rule="evenodd" d="M16.2529 5.31164C16.2529 4.81532 16.6553 4.41296 17.1516 4.41296H20.4468C20.9431 4.41296 21.3455 4.81532 21.3455 5.31164C21.3455 5.80797 20.9431 6.21033 20.4468 6.21033H17.1516C16.6553 6.21033 16.2529 5.80797 16.2529 5.31164Z" fill="white"/>
<path id="Vector_4" fill-rule="evenodd" clip-rule="evenodd" d="M19.5479 5.31164C19.5479 4.81532 19.9502 4.41296 20.4465 4.41296C20.9428 4.41296 21.3452 4.81532 21.3452 5.31164V8.60681C21.3452 9.10313 20.9428 9.50549 20.4465 9.50549C19.9502 9.50549 19.5479 9.10313 19.5479 8.60681V5.31164Z" fill="white"/>
<path id="Vector_5" fill-rule="evenodd" clip-rule="evenodd" d="M9.36279 12.8009C9.36279 14.7863 10.9722 16.3956 12.9575 16.3956C14.9429 16.3956 16.5522 14.7863 16.5522 12.8009C16.5522 10.8155 14.9429 9.20618 12.9575 9.20618C10.9722 9.20618 9.36279 10.8155 9.36279 12.8009ZM14.7549 12.8009C14.7549 13.7935 13.9501 14.5983 12.9575 14.5983C11.9649 14.5983 11.1602 13.7935 11.1602 12.8009C11.1602 11.8083 11.9649 11.0035 12.9575 11.0035C13.9501 11.0035 14.7549 11.8083 14.7549 12.8009Z" fill="white"/>
</g>
</svg>
