<svg width="21" height="27" viewBox="0 0 21 27" fill="none" xmlns="http://www.w3.org/2000/svg">
<g id="Group">
<path id="Vector" fill-rule="evenodd" clip-rule="evenodd" d="M18.3371 9.40026C17.3186 7.72671 15.1165 4.9715 11.7072 1.09419C11.3093 0.641635 10.604 0.642566 10.2073 1.09618C6.8089 4.98177 4.60824 7.73508 3.58273 9.39443C0.205202 14.8595 -0.0491271 19.9586 3.72955 23.6986C7.81698 27.7443 14.099 27.743 18.1865 23.6988C21.962 19.9634 21.7113 14.9447 18.3371 9.40026ZM5.27974 10.4432C6.15661 9.02438 8.05594 6.62325 10.9601 3.26995C13.8687 6.61273 15.7657 9.01246 16.6329 10.4374C19.5795 15.2792 19.781 19.3147 16.7834 22.2807C13.4732 25.5559 8.44283 25.5569 5.13291 22.2808C2.13273 19.3113 2.3376 15.2038 5.27974 10.4432Z" fill="white"/>
<path id="Vector_2" d="M11.9372 21.7642C14.0946 21.0476 15.579 19.0238 15.579 16.7148C15.579 16.1639 15.1324 15.7173 14.5815 15.7173C14.0306 15.7173 13.584 16.1639 13.584 16.7148C13.584 18.158 12.6559 19.4234 11.3083 19.871C10.7855 20.0447 10.5025 20.6093 10.6761 21.1321C10.8498 21.6549 11.4145 21.9379 11.9372 21.7642Z" fill="white"/>
</g>
</svg>
