<svg width="27" height="21" viewBox="0 0 27 21" fill="none" xmlns="http://www.w3.org/2000/svg">
<g id="Group">
<path id="Vector" d="M6.90623 10.2352H14.0058C14.7282 10.2349 15.4407 10.0674 16.0876 9.74584C16.7344 9.42428 17.2981 8.95736 17.7344 8.38163C18.1707 7.8059 18.4679 7.137 18.6026 6.42729C18.7372 5.71757 18.7058 4.98632 18.5108 4.29076C18.3158 3.59521 17.9624 2.95424 17.4783 2.41804C16.9942 1.88184 16.3926 1.46496 15.7206 1.20003C15.0485 0.935105 14.3243 0.829328 13.6045 0.89098C12.8848 0.952632 12.1891 1.18004 11.5719 1.5554C11.3672 1.68801 11.2223 1.89528 11.1681 2.13308C11.1139 2.37089 11.1547 2.62045 11.2817 2.82866C11.4088 3.03686 11.6121 3.18726 11.8483 3.24785C12.0846 3.30844 12.3351 3.27443 12.5467 3.15306C12.9171 2.92848 13.3345 2.79263 13.7661 2.75614C14.1977 2.71965 14.632 2.7835 15.0348 2.9427C15.4377 3.10191 15.7983 3.35215 16.0884 3.67386C16.3784 3.99556 16.5902 4.38001 16.707 4.79714C16.8238 5.21427 16.8426 5.65277 16.7618 6.07835C16.681 6.50393 16.5028 6.90505 16.2413 7.25034C15.9797 7.59563 15.6418 7.87573 15.254 8.06874C14.8662 8.26175 14.439 8.36243 14.0058 8.36291L6.90623 8.36416C6.65795 8.36416 6.41985 8.46278 6.24429 8.63834C6.06873 8.8139 5.9701 9.05201 5.9701 9.30028C5.9701 9.54856 6.06873 9.78667 6.24429 9.96222C6.41985 10.1378 6.65795 10.2364 6.90623 10.2364V10.2352ZM1.91356 14.6037H14.3528C14.6417 14.6038 14.9267 14.6707 15.1855 14.7993C15.4442 14.9278 15.6697 15.1145 15.8443 15.3447C16.0189 15.5749 16.1378 15.8424 16.1918 16.1263C16.2458 16.4101 16.2333 16.7026 16.1554 16.9808C16.0775 17.2591 15.9363 17.5155 15.7427 17.73C15.5492 17.9446 15.3087 18.1114 15.0399 18.2175C14.7712 18.3236 14.4815 18.366 14.1936 18.3415C13.9057 18.317 13.6274 18.2262 13.3805 18.0762C13.1686 17.952 12.9165 17.9161 12.6784 17.9761C12.4403 18.0361 12.2353 18.1872 12.1076 18.397C11.9799 18.6067 11.9397 18.8582 11.9957 19.0973C12.0517 19.3363 12.1994 19.5438 12.4069 19.6751C12.9007 19.9754 13.4572 20.1574 14.0331 20.2068C14.6089 20.2562 15.1883 20.1716 15.726 19.9597C16.2637 19.7478 16.7451 19.4143 17.1324 18.9853C17.5197 18.5563 17.8024 18.0435 17.9584 17.487C18.1145 16.9306 18.1396 16.3455 18.0318 15.7777C17.9241 15.2099 17.6863 14.6748 17.3372 14.2142C16.9881 13.7536 16.5371 13.38 16.0196 13.1228C15.5021 12.8656 14.932 12.7317 14.354 12.7315H1.91231C1.78937 12.7316 1.66766 12.7559 1.55412 12.803C1.44057 12.8501 1.33742 12.9191 1.25055 13.0061C1.16368 13.0931 1.0948 13.1964 1.04783 13.31C1.00086 13.4236 0.976725 13.5453 0.976807 13.6682C0.976889 13.7912 1.00118 13.9129 1.0483 14.0264C1.09542 14.14 1.16445 14.2431 1.25143 14.33C1.33842 14.4169 1.44166 14.4858 1.55527 14.5327C1.66888 14.5797 1.79062 14.6038 1.91356 14.6037ZM20.2204 12.1074H23.0301C23.608 12.1073 24.1781 11.9733 24.6956 11.7161C25.2132 11.4589 25.6641 11.0853 26.0132 10.6247C26.3623 10.1641 26.6001 9.62899 26.7079 9.06119C26.8156 8.49338 26.7905 7.90834 26.6345 7.35186C26.4784 6.79538 26.1957 6.28258 25.8084 5.85361C25.4211 5.42463 24.9397 5.09113 24.4021 4.87921C23.8644 4.6673 23.2849 4.58272 22.7091 4.6321C22.1333 4.68148 21.5767 4.86348 21.0829 5.16385C20.8782 5.29647 20.7334 5.50373 20.6792 5.74154C20.625 5.97934 20.6657 6.22891 20.7928 6.43711C20.9198 6.64531 21.1231 6.79572 21.3594 6.85631C21.5956 6.91689 21.8462 6.88288 22.0577 6.76151C22.3047 6.6115 22.583 6.52069 22.8709 6.49616C23.1588 6.47164 23.4484 6.51408 23.7172 6.62016C23.9859 6.72625 24.2265 6.89309 24.42 7.10763C24.6135 7.32217 24.7548 7.57859 24.8327 7.85682C24.9106 8.13505 24.923 8.42753 24.8691 8.71138C24.8151 8.99522 24.6962 9.26273 24.5216 9.49295C24.347 9.72317 24.1215 9.90986 23.8628 10.0384C23.604 10.167 23.319 10.2339 23.0301 10.2339L20.2204 10.2352C19.9722 10.2352 19.7341 10.3338 19.5585 10.5093C19.3829 10.6849 19.2843 10.923 19.2843 11.1713C19.2843 11.4196 19.3829 11.6577 19.5585 11.8332C19.7341 12.0088 19.9722 12.1074 20.2204 12.1074Z" fill="white"/>
</g>
</svg>
