<svg width="21" height="20" viewBox="0 0 21 20" fill="none" xmlns="http://www.w3.org/2000/svg">
<g id="heart-line 1">
<path id="Vector" d="M10.5009 3.77378C12.4584 2.01667 15.4834 2.075 17.3689 3.96447C19.2545 5.85393 19.3192 8.86417 17.5656 10.8275L10.5 17.9042L3.43456 10.8275C1.68095 8.86417 1.7465 5.84918 3.63121 3.96447C5.51806 2.07763 8.53774 2.01406 10.5009 3.77378ZM16.1892 5.14175C14.94 3.88995 12.9231 3.83918 11.6142 5.01406L10.5017 6.0127L9.3885 5.01484C8.0759 3.83831 6.06263 3.89007 4.80972 5.14298C3.56827 6.38443 3.50595 8.37275 4.65002 9.686L10.5 15.5453L16.3502 9.686C17.4947 8.37225 17.4326 6.38771 16.1892 5.14175Z" fill="#002586"/>
</g>
</svg>
