<svg width="20" height="20" viewBox="0 0 20 20" fill="none" xmlns="http://www.w3.org/2000/svg">
<path id="Vector" d="M15.7834 14.3911L20 18.6076L18.6076 20L14.3911 15.7834C12.875 16.9964 10.9522 17.722 8.86102 17.722C3.96973 17.722 0 13.7523 0 8.86102C0 3.96973 3.96973 0 8.86102 0C13.7523 0 17.722 3.96973 17.722 8.86102C17.722 10.9522 16.9964 12.875 15.7834 14.3911ZM13.8081 13.6605C15.012 12.4198 15.7529 10.7273 15.7529 8.86102C15.7529 5.05324 12.6688 1.96911 8.86102 1.96911C5.05324 1.96911 1.96911 5.05324 1.96911 8.86102C1.96911 12.6688 5.05324 15.7529 8.86102 15.7529C10.7273 15.7529 12.4198 15.012 13.6605 13.8081L13.8081 13.6605Z" fill="#A9A9A9"/>
</svg>
