<svg width="21" height="20" viewBox="0 0 21 20" fill="none" xmlns="http://www.w3.org/2000/svg">
<g id="ten_dforecast_icon" clip-path="url(#clip0_266_7084)">
<g id="Group">
<path id="Vector" d="M8.16675 9.99992C8.00008 10.1666 7.75008 10.3333 7.50008 10.5833C7.33341 10.6666 7.08341 10.9166 6.75008 11.1666C6.41675 11.4166 6.00008 11.8333 5.58341 12.3333C5.50008 12.4166 5.41675 12.5833 5.33341 12.7499C5.25008 12.9166 5.16675 13.0833 5.16675 13.1666C5.16675 13.3333 5.25008 13.4999 5.33341 13.6666C5.50008 13.8333 5.66675 13.8333 5.91675 13.8333H9.41675C9.66675 13.8333 9.75008 13.7499 9.91675 13.6666C10.0001 13.5833 10.0834 13.4166 10.0834 13.2499C10.0834 13.0833 10.0001 12.9166 9.91675 12.8333C9.75008 12.7499 9.58342 12.6666 9.33342 12.6666H6.83341C6.91675 12.5833 7.00008 12.4166 7.08341 12.3333C7.25008 12.0833 7.58342 11.8333 8.08342 11.4166C8.58342 10.9999 8.91675 10.7499 9.08341 10.5833C9.25008 10.4166 9.50008 10.1666 9.66675 9.83325C9.83341 9.49992 10.0001 9.16659 10.0001 8.74992C10.0001 8.49992 9.91675 8.24992 9.83341 7.99992C9.75008 7.83325 9.66675 7.66659 9.50008 7.49992C9.33342 7.33325 9.16675 7.16659 8.91675 7.08325C8.50008 6.91659 8.08342 6.83325 7.66675 6.83325C7.25008 6.83325 6.91675 6.91659 6.58341 6.99992C6.25008 7.08325 6.00008 7.24992 5.83341 7.49992C5.66675 7.74992 5.50008 7.91659 5.41675 8.16659C5.33341 8.41659 5.25008 8.66659 5.25008 8.83325C5.25008 8.99992 5.33341 9.16659 5.41675 9.24992C5.50008 9.33325 5.66675 9.41659 5.83341 9.41659C6.00008 9.41659 6.16675 9.33325 6.25008 9.24992C6.33341 9.16659 6.41675 8.99992 6.50008 8.74992C6.58341 8.49992 6.66675 8.41659 6.66675 8.33325C6.83341 7.99992 7.16675 7.83325 7.58341 7.83325C7.75008 7.83325 8.00008 7.91659 8.16675 7.99992C8.33341 7.99992 8.41675 8.16659 8.58341 8.33325C8.66675 8.49992 8.75008 8.66659 8.75008 8.91659C8.75008 9.08325 8.66675 9.33325 8.58341 9.49992C8.50008 9.66658 8.33341 9.83325 8.16675 9.99992Z" fill="#002586"/>
<path id="Vector_2" d="M14.0834 13.8333C14.1667 13.9167 14.3334 14 14.5001 14C14.6667 14 14.8334 13.9167 14.9167 13.8333C15.0001 13.75 15.0834 13.5 15.0834 13.25V12.3333H15.4167C15.6667 12.3333 15.8334 12.25 16.0001 12.1667C16.0834 12.0833 16.1667 11.9167 16.1667 11.75C16.1667 11.5 16.0834 11.4167 15.9167 11.3333C15.7501 11.25 15.5834 11.25 15.3334 11.25H15.1667V7.58333C15.1667 7 14.9167 6.75 14.4167 6.75C14.2501 6.75 14.1667 6.83333 14.0001 6.91667C13.9167 7 13.7501 7.16667 13.5834 7.41667L11.0834 10.8333C11.0001 10.9167 10.9167 11 10.9167 11.0833C10.8334 11.1667 10.8334 11.25 10.7501 11.25C10.6667 11.3333 10.6667 11.4167 10.6667 11.4167C10.6667 11.5 10.6667 11.5 10.6667 11.5833C10.6667 11.8333 10.7501 12 10.9167 12.1667C11.0834 12.3333 11.3334 12.3333 11.5834 12.3333H14.0001V13.25C13.9167 13.5 14.0001 13.75 14.0834 13.8333ZM11.9167 11.3333L14.0001 8.58333V11.3333H11.9167Z" fill="#002586"/>
<path id="Vector_3" d="M18.4167 12.2501L20.1667 12.4167C20.2501 12.0001 20.3334 11.5001 20.4167 11.0001L18.6667 10.9167C18.5834 11.4167 18.5001 11.8334 18.4167 12.2501Z" fill="#002586"/>
<path id="Vector_4" d="M18.5833 8.50008L20.25 8.33341C20.1667 7.83341 20.0833 7.41675 19.9167 6.91675L18.25 7.33341C18.4167 7.75008 18.5 8.08341 18.5833 8.50008Z" fill="#002586"/>
<path id="Vector_5" d="M20.4167 8.91675L18.75 9.08341C18.75 9.41675 18.8333 9.66675 18.8333 10.0001C18.8333 10.1667 18.8333 10.2501 18.8333 10.3334L20.5833 10.4167C20.5833 10.2501 20.5833 10.0834 20.5833 10.0001C20.4167 9.66675 20.4167 9.25008 20.4167 8.91675Z" fill="#002586"/>
<path id="Vector_6" d="M10.5 18.25C6.00004 18.25 2.25004 14.5833 2.25004 10C2.25004 5.41667 6.00004 1.75 10.5 1.75C13 1.75 15.25 2.91667 16.75 4.66667L15.1667 5.66667V5.75L18.8334 6.58333L19.6667 2.91667H19.5834L18.1667 3.75C16.3334 1.5 13.5834 0 10.4167 0C5.00004 0.0833333 0.583374 4.5 0.583374 10C0.583374 15.5 5.00004 19.9167 10.5 19.9167C14.9167 19.9167 18.6667 17 19.9167 13L18.1667 12.75C17.0834 16 14 18.25 10.5 18.25Z" fill="#002586"/>
<path id="Vector_7" d="M10.9167 18.25C6.41667 18.25 2.66667 14.5833 2.66667 10C2.66667 5.41667 6.41667 1.75 10.9167 1.75C13.4167 1.75 15.6667 2.91667 17.1667 4.66667L15.5833 5.66667V5.75L19.25 6.58333L20.0833 2.91667H20L18.5833 3.75C16.75 1.5 14 0 10.8333 0C5.41667 0.0833333 1 4.5 1 10C1 15.5 5.41667 19.9167 10.9167 19.9167C15.3333 19.9167 19.0833 17 20.3333 13L18.5833 12.75C17.5 16 14.4167 18.25 10.9167 18.25Z" fill="#002586"/>
</g>
</g>
<defs>
<clipPath id="clip0_266_7084">
<rect width="20" height="20" fill="white" transform="translate(0.5)"/>
</clipPath>
</defs>
</svg>
